<svg xmlns="http://www.w3.org/2000/svg" viewBox="0 0 186.8 60.8" width="186.8" height="60.8"><path d="M124.2,4.2a3.9,3.9,0,0,0-7.8,0V17.3H102.5a21.6,21.6,0,1,0,21.6,21.6V31.7h0l.1-27.5Zm-7.7,34.7A13.9,13.9,0,1,1,102.6,25h13.9Z" style="fill:#76397c"/><path d="M21.6,0A21.638,21.638,0,0,0,0,21.6V56.9a4.041,4.041,0,0,0,3.9,3.9h0a4.041,4.041,0,0,0,3.9-3.9V32.4H15a4.041,4.041,0,0,0,3.9-3.9A3.971,3.971,0,0,0,15,24.6H7.8v-3A13.87,13.87,0,0,1,21.7,7.7a4.041,4.041,0,0,0,3.9-3.9,4.2,4.2,0,0,0-4-3.8" style="fill:#76397c"/><path d="M28.4,21.9a4.5,4.5,0,1,0,0-9,4.187,4.187,0,0,0-4.7,4.2,4.656,4.656,0,0,0,4.7,4.8" style="fill:#76397c"/><path d="M28.4,24.3a4.041,4.041,0,0,0-3.9,3.9V56.7a4.041,4.041,0,0,0,3.9,3.9,3.971,3.971,0,0,0,3.9-3.9V28.1a4.1,4.1,0,0,0-3.9-3.8" style="fill:#76397c"/><path d="M57.2,17.2A19.014,19.014,0,0,0,38.3,36.1V56.5a3.9,3.9,0,1,0,7.8,0V36.1a11.2,11.2,0,0,1,22.4,0V56.5a4.041,4.041,0,0,0,3.9,3.9,3.971,3.971,0,0,0,3.9-3.9V36.1A19.389,19.389,0,0,0,57.2,17.2" style="fill:#76397c"/><path d="M165.2,17.2a21.6,21.6,0,1,0,21.6,21.6,21.638,21.638,0,0,0-21.6-21.6m0,35.6a13.9,13.9,0,1,1,13.9-13.9,13.87,13.87,0,0,1-13.9,13.9" style="fill:#20bec6"/><path d="M134.4,21.9a4.5,4.5,0,1,0,0-9,4.481,4.481,0,0,0-4.5,4.5,4.546,4.546,0,0,0,4.5,4.5" style="fill:#76397c"/><path d="M134.4,24.3a4.041,4.041,0,0,0-3.9,3.9V56.7a3.9,3.9,0,0,0,7.8,0V28.1a4.1,4.1,0,0,0-3.9-3.8" style="fill:#76397c"/></svg>
