<svg xmlns="http://www.w3.org/2000/svg" xmlns:xlink="http://www.w3.org/1999/xlink" viewBox="0 0 547.666 46.209"><defs><clipPath id="a"><rect x="498.306" width="49.36" height="36.66" style="fill:none"/></clipPath></defs><title>geldlenenkostgeld-banner</title><g style="isolation:isolate"><path d="M0,38.51V12.535H5.288V34.1H18.437V38.51Z" style="fill:#1d1d1b"/><path d="M33.156,32.472l5,.839A8.2,8.2,0,0,1,35.113,37.5a8.947,8.947,0,0,1-5.208,1.438q-4.948,0-7.324-3.233a10.859,10.859,0,0,1-1.876-6.538,10.475,10.475,0,0,1,2.466-7.387,8.117,8.117,0,0,1,6.234-2.671,8.419,8.419,0,0,1,6.681,2.8q2.448,2.8,2.341,8.566H25.85a5.082,5.082,0,0,0,1.214,3.474,3.8,3.8,0,0,0,2.895,1.241,3.067,3.067,0,0,0,1.982-.642A3.958,3.958,0,0,0,33.156,32.472Zm.286-5.074a4.836,4.836,0,0,0-1.125-3.314,3.623,3.623,0,0,0-5.324.063A4.639,4.639,0,0,0,25.939,27.4Z" style="fill:#1d1d1b"/><path d="M51.218,19.538v4h-3.43v7.646a18.958,18.958,0,0,0,.1,2.706,1.1,1.1,0,0,0,.447.634,1.411,1.411,0,0,0,.848.25,6.51,6.51,0,0,0,2.019-.482l.429,3.894a9.985,9.985,0,0,1-3.966.75,6.286,6.286,0,0,1-2.448-.455,3.57,3.57,0,0,1-1.6-1.179,4.661,4.661,0,0,1-.7-1.956,24.347,24.347,0,0,1-.161-3.537V23.54h-2.3v-4h2.3V15.769l5.038-2.93v6.7Z" style="fill:#1d1d1b"/><path d="M63.7,28.756a10.26,10.26,0,0,1,1.233-4.841,8.463,8.463,0,0,1,3.493-3.573,10.358,10.358,0,0,1,5.046-1.233,9.471,9.471,0,0,1,7.056,2.8,9.659,9.659,0,0,1,2.751,7.065,9.776,9.776,0,0,1-2.777,7.137,9.39,9.39,0,0,1-6.994,2.831,11.016,11.016,0,0,1-4.976-1.178,8.091,8.091,0,0,1-3.6-3.457A11.515,11.515,0,0,1,63.7,28.756Zm5.145.267a6.293,6.293,0,0,0,1.339,4.324,4.38,4.38,0,0,0,6.6,0,6.372,6.372,0,0,0,1.331-4.359A6.257,6.257,0,0,0,76.79,24.7a4.38,4.38,0,0,0-6.6,0A6.292,6.292,0,0,0,68.849,29.023Z" style="fill:#1d1d1b"/><path d="M87.071,19.538h4.681v2.787A7,7,0,0,1,94.217,20a6.789,6.789,0,0,1,3.448-.894,7.234,7.234,0,0,1,5.609,2.591,10.48,10.48,0,0,1,2.3,7.217q0,4.752-2.322,7.387a7.233,7.233,0,0,1-5.627,2.634,6.4,6.4,0,0,1-2.85-.625,9.6,9.6,0,0,1-2.688-2.143v9.557h-5.02ZM92.037,28.7a7.309,7.309,0,0,0,1.269,4.726,3.882,3.882,0,0,0,3.09,1.527,3.633,3.633,0,0,0,2.913-1.4q1.159-1.4,1.161-4.6a6.858,6.858,0,0,0-1.2-4.43,3.7,3.7,0,0,0-2.965-1.447A3.849,3.849,0,0,0,93.252,24.5,6.32,6.32,0,0,0,92.037,28.7Z" style="fill:#1d1d1b"/><path d="M111.527,31.757l-1.3-13.291V12.321h5.43v6.145l-1.286,13.291Zm-1.089,6.753V33.49h5.02v5.02Z" style="fill:#1d1d1b"/><path d="M144.131,28.881V24.469h11.4V34.9a14.334,14.334,0,0,1-4.814,2.831,17.528,17.528,0,0,1-6.387,1.224,14.33,14.33,0,0,1-7.164-1.724,10.969,10.969,0,0,1-4.591-4.93,15.936,15.936,0,0,1-1.536-6.975,15.063,15.063,0,0,1,1.715-7.271,11.548,11.548,0,0,1,5.02-4.877,13.535,13.535,0,0,1,6.27-1.3q4.878,0,7.619,2.046a9.237,9.237,0,0,1,3.528,5.654l-5.251.983a5.549,5.549,0,0,0-2.082-3.046,6.293,6.293,0,0,0-3.814-1.117,7.165,7.165,0,0,0-5.511,2.2q-2.046,2.2-2.046,6.521,0,4.662,2.073,6.993a6.917,6.917,0,0,0,5.43,2.331,9.081,9.081,0,0,0,3.332-.652,11.4,11.4,0,0,0,2.868-1.58V28.881Z" style="fill:#1d1d1b"/><path d="M171.355,32.472l5,.839a8.2,8.2,0,0,1-3.045,4.189,8.947,8.947,0,0,1-5.208,1.438q-4.947,0-7.324-3.233a10.859,10.859,0,0,1-1.876-6.538,10.48,10.48,0,0,1,2.466-7.387,8.119,8.119,0,0,1,6.234-2.671,8.419,8.419,0,0,1,6.681,2.8q2.448,2.8,2.341,8.566H164.049a5.077,5.077,0,0,0,1.215,3.474,3.8,3.8,0,0,0,2.894,1.241,3.072,3.072,0,0,0,1.983-.642A3.964,3.964,0,0,0,171.355,32.472Zm.287-5.074a4.846,4.846,0,0,0-1.125-3.314,3.625,3.625,0,0,0-5.325.063,4.638,4.638,0,0,0-1.053,3.251Z" style="fill:#1d1d1b"/><path d="M180.717,38.51V12.321h5.019V38.51Z" style="fill:#1d1d1b"/><path d="M208.281,38.51h-4.663V35.723a7.54,7.54,0,0,1-2.742,2.421,7.046,7.046,0,0,1-3.188.794,7.224,7.224,0,0,1-5.6-2.634q-2.332-2.636-2.331-7.352,0-4.823,2.268-7.332a7.4,7.4,0,0,1,5.735-2.511,7.1,7.1,0,0,1,5.5,2.644V12.321h5.02Zm-13.4-9.9a8.674,8.674,0,0,0,.84,4.4,3.793,3.793,0,0,0,3.393,1.965,3.7,3.7,0,0,0,2.948-1.474,6.8,6.8,0,0,0,1.215-4.4q0-3.268-1.179-4.707a3.734,3.734,0,0,0-3.019-1.438,3.771,3.771,0,0,0-2.992,1.421A6.407,6.407,0,0,0,194.883,28.613Z" style="fill:#1d1d1b"/><path d="M223.4,38.51V12.321h5.019V38.51Z" style="fill:#1d1d1b"/><path d="M244.546,32.472l5,.839A8.2,8.2,0,0,1,246.5,37.5a8.949,8.949,0,0,1-5.208,1.438q-4.948,0-7.324-3.233a10.859,10.859,0,0,1-1.876-6.538,10.475,10.475,0,0,1,2.466-7.387,8.116,8.116,0,0,1,6.234-2.671,8.42,8.42,0,0,1,6.681,2.8q2.447,2.8,2.34,8.566H237.239a5.082,5.082,0,0,0,1.215,3.474,3.8,3.8,0,0,0,2.895,1.241,3.067,3.067,0,0,0,1.982-.642A3.971,3.971,0,0,0,244.546,32.472Zm.286-5.074a4.836,4.836,0,0,0-1.125-3.314,3.623,3.623,0,0,0-5.324.063,4.634,4.634,0,0,0-1.054,3.251Z" style="fill:#1d1d1b"/><path d="M271.164,38.51h-5.019V28.827a14.972,14.972,0,0,0-.322-3.974,2.784,2.784,0,0,0-1.046-1.4,2.978,2.978,0,0,0-1.741-.5,4.022,4.022,0,0,0-2.34.715,3.6,3.6,0,0,0-1.421,1.893,16.427,16.427,0,0,0-.383,4.359V38.51h-5.02V19.538h4.662v2.787a7.772,7.772,0,0,1,9.289-2.617,5.091,5.091,0,0,1,2.082,1.527,5.551,5.551,0,0,1,.983,2.108,15.728,15.728,0,0,1,.276,3.377Z" style="fill:#1d1d1b"/><path d="M287.243,32.472l5,.839A8.208,8.208,0,0,1,289.2,37.5a8.949,8.949,0,0,1-5.208,1.438q-4.949,0-7.325-3.233a10.859,10.859,0,0,1-1.876-6.538,10.475,10.475,0,0,1,2.466-7.387,8.119,8.119,0,0,1,6.235-2.671,8.417,8.417,0,0,1,6.68,2.8q2.448,2.8,2.341,8.566H279.936a5.077,5.077,0,0,0,1.215,3.474,3.8,3.8,0,0,0,2.894,1.241,3.068,3.068,0,0,0,1.983-.642A3.971,3.971,0,0,0,287.243,32.472Zm.286-5.074a4.836,4.836,0,0,0-1.125-3.314,3.623,3.623,0,0,0-5.324.063,4.634,4.634,0,0,0-1.054,3.251Z" style="fill:#1d1d1b"/><path d="M313.86,38.51h-5.02V28.827a14.988,14.988,0,0,0-.321-3.974,2.784,2.784,0,0,0-1.046-1.4,2.978,2.978,0,0,0-1.741-.5,4.022,4.022,0,0,0-2.34.715,3.6,3.6,0,0,0-1.421,1.893,16.372,16.372,0,0,0-.384,4.359V38.51h-5.019V19.538h4.662v2.787a7.772,7.772,0,0,1,9.289-2.617,5.1,5.1,0,0,1,2.082,1.527,5.535,5.535,0,0,1,.982,2.108,15.651,15.651,0,0,1,.277,3.377Z" style="fill:#1d1d1b"/><path d="M328.938,38.51V12.321h5.02v13.9l5.877-6.681h6.181l-6.484,6.931,6.949,12.041h-5.413l-4.77-8.522-2.34,2.448V38.51Z" style="fill:#1d1d1b"/><path d="M348.3,28.756a10.26,10.26,0,0,1,1.233-4.841,8.463,8.463,0,0,1,3.493-3.573,10.358,10.358,0,0,1,5.046-1.233,9.471,9.471,0,0,1,7.056,2.8,9.659,9.659,0,0,1,2.751,7.065,9.772,9.772,0,0,1-2.777,7.137,9.39,9.39,0,0,1-6.994,2.831,11.019,11.019,0,0,1-4.976-1.178,8.091,8.091,0,0,1-3.6-3.457A11.515,11.515,0,0,1,348.3,28.756Zm5.145.267a6.288,6.288,0,0,0,1.34,4.324,4.379,4.379,0,0,0,6.6,0,6.372,6.372,0,0,0,1.331-4.359,6.257,6.257,0,0,0-1.331-4.287,4.379,4.379,0,0,0-6.6,0A6.288,6.288,0,0,0,353.448,29.023Z" style="fill:#1d1d1b"/><path d="M370.044,33.1l5.039-.768a3.682,3.682,0,0,0,1.3,2.224,4.4,4.4,0,0,0,2.751.759,4.969,4.969,0,0,0,2.93-.714,1.6,1.6,0,0,0,.661-1.34,1.319,1.319,0,0,0-.357-.947,4.008,4.008,0,0,0-1.679-.662q-6.075-1.338-7.7-2.447a4.886,4.886,0,0,1-2.25-4.269,5.26,5.26,0,0,1,1.946-4.144q1.949-1.68,6.039-1.68a10.531,10.531,0,0,1,5.788,1.269,6.488,6.488,0,0,1,2.608,3.751L382.389,25a2.93,2.93,0,0,0-1.152-1.7,4.218,4.218,0,0,0-2.421-.59,5.459,5.459,0,0,0-2.841.554,1.188,1.188,0,0,0-.571,1.018,1.114,1.114,0,0,0,.5.912,18.858,18.858,0,0,0,4.689,1.41,13.975,13.975,0,0,1,5.6,2.233,4.641,4.641,0,0,1,1.572,3.734,5.727,5.727,0,0,1-2.18,4.483q-2.18,1.877-6.449,1.876A10.573,10.573,0,0,1,373,37.366,7.248,7.248,0,0,1,370.044,33.1Z" style="fill:#1d1d1b"/><path d="M400.861,19.538v4h-3.43v7.646a18.958,18.958,0,0,0,.1,2.706,1.1,1.1,0,0,0,.447.634,1.413,1.413,0,0,0,.848.25,6.51,6.51,0,0,0,2.019-.482l.429,3.894a9.985,9.985,0,0,1-3.966.75,6.286,6.286,0,0,1-2.448-.455,3.57,3.57,0,0,1-1.6-1.179,4.661,4.661,0,0,1-.705-1.956,24.347,24.347,0,0,1-.161-3.537V23.54h-2.3v-4h2.3V15.769l5.038-2.93v6.7Z" style="fill:#1d1d1b"/><path d="M414.043,39.761l5.736.7a1.961,1.961,0,0,0,.66,1.376,3.786,3.786,0,0,0,2.251.535,5.848,5.848,0,0,0,2.948-.589,2.427,2.427,0,0,0,1-1.268,7.616,7.616,0,0,0,.233-2.3V35.437a6.8,6.8,0,0,1-5.681,3.073,7,7,0,0,1-6.057-3.234,10.991,10.991,0,0,1-1.75-6.359q0-4.77,2.3-7.289a7.408,7.408,0,0,1,5.708-2.519,6.952,6.952,0,0,1,5.806,3.091V19.538h4.7V36.562a16.928,16.928,0,0,1-.554,5.02,6.2,6.2,0,0,1-1.553,2.608,6.9,6.9,0,0,1-2.671,1.484,14.111,14.111,0,0,1-4.225.535q-4.824,0-6.843-1.652a5.187,5.187,0,0,1-2.018-4.19C414.026,40.2,414.032,40,414.043,39.761Zm4.485-11.13a6.835,6.835,0,0,0,1.17,4.421,3.617,3.617,0,0,0,2.885,1.4,3.988,3.988,0,0,0,3.109-1.437,6.272,6.272,0,0,0,1.267-4.261,6.65,6.65,0,0,0-1.213-4.377,3.866,3.866,0,0,0-3.074-1.429,3.705,3.705,0,0,0-2.974,1.4A6.569,6.569,0,0,0,418.528,28.631Z" style="fill:#1d1d1b"/><path d="M447.843,32.472l5,.839A8.2,8.2,0,0,1,449.8,37.5a8.947,8.947,0,0,1-5.208,1.438q-4.948,0-7.324-3.233a10.859,10.859,0,0,1-1.876-6.538,10.475,10.475,0,0,1,2.466-7.387,8.117,8.117,0,0,1,6.234-2.671,8.419,8.419,0,0,1,6.681,2.8q2.448,2.8,2.341,8.566H440.537a5.082,5.082,0,0,0,1.214,3.474,3.8,3.8,0,0,0,2.9,1.241,3.067,3.067,0,0,0,1.982-.642A3.958,3.958,0,0,0,447.843,32.472Zm.286-5.074A4.836,4.836,0,0,0,447,24.084a3.623,3.623,0,0,0-5.324.063,4.639,4.639,0,0,0-1.054,3.251Z" style="fill:#1d1d1b"/><path d="M457.205,38.51V12.321h5.019V38.51Z" style="fill:#1d1d1b"/><path d="M484.77,38.51h-4.663V35.723a7.548,7.548,0,0,1-2.742,2.421,7.047,7.047,0,0,1-3.189.794,7.222,7.222,0,0,1-5.6-2.634q-2.332-2.636-2.331-7.352,0-4.823,2.268-7.332a7.4,7.4,0,0,1,5.735-2.511,7.1,7.1,0,0,1,5.5,2.644V12.321h5.02Zm-13.4-9.9a8.686,8.686,0,0,0,.839,4.4,3.8,3.8,0,0,0,3.394,1.965,3.7,3.7,0,0,0,2.948-1.474,6.8,6.8,0,0,0,1.215-4.4q0-3.268-1.18-4.707a3.873,3.873,0,0,0-6.01-.017A6.407,6.407,0,0,0,471.372,28.613Z" style="fill:#1d1d1b"/></g><g style="clip-path:url(#a)"><path d="M538.946,5.82a2.91,2.91,0,1,0-2.91-2.91v.01a2.9,2.9,0,0,0,2.9,2.9h.01m8.19,10.32a1.51,1.51,0,0,0-.82-.73l-5.32-2-1.87-4.66a4.029,4.029,0,0,0-.47-1.12,1.513,1.513,0,0,0-.23-.33h0a3.789,3.789,0,0,0-4.27-1.16,2.628,2.628,0,0,0-.28.06l-6.26,2a1.624,1.624,0,0,0-.76.55,1.5,1.5,0,0,0-.44.87l-.92,6.51a1.58,1.58,0,0,0,3.12.45l.8-5.65,2.24-.73-2,5.65a3.738,3.738,0,0,0,.58,3.63l-.9,2-5.41,12a.27.27,0,0,0-.12,0h-.87a1.406,1.406,0,0,0-.21-.44.872.872,0,0,0-.7-.38h-1.4a.85.85,0,0,0-.69.39,1.426,1.426,0,0,0-.18.39h-.2a.839.839,0,0,0-.45-.65l-1.26-.63a.849.849,0,0,0-.79,0,1.455,1.455,0,0,0-.34.26l-.13-.07a1.545,1.545,0,0,0,0-.48.9.9,0,0,0-.45-.66l-1.26-.62a.869.869,0,0,0-.8,0,1.4,1.4,0,0,0-.51.51h-.37a1.356,1.356,0,0,0-.19-.41.9.9,0,0,0-.7-.39h-1.4a.9.9,0,0,0-.7.39,1.4,1.4,0,0,0-.18.39h-.19a.459.459,0,0,0-.32-.42.451.451,0,0,0-.55.3l-.28,1a.443.443,0,0,0,.85.25l.07-.26h.43a1.143,1.143,0,0,0,.17.37.89.89,0,0,0,.7.38h1.4a.887.887,0,0,0,.7-.38,1.383,1.383,0,0,0,.17-.35h.19a.215.215,0,0,0,0,.08.861.861,0,0,0,.45.66l1.26.62a.879.879,0,0,0,.79,0,1.268,1.268,0,0,0,.29-.22l.16.09a1.408,1.408,0,0,0,0,.41.9.9,0,0,0,.45.66l1.26.62a.869.869,0,0,0,.8,0,1.374,1.374,0,0,0,.54-.58h.37a1.018,1.018,0,0,0,.19.37.872.872,0,0,0,.7.38h1.4a.868.868,0,0,0,.69-.4,1.369,1.369,0,0,0,.16-.32h.82a2,2,0,0,0,3.74.89l5.53-12.27,2.7,3.45,1,8.24a2,2,0,0,0,3.89-.46l-1-8.41a3.23,3.23,0,0,0-.68-1.64l-3.21-4.25s.13-.28.28-.65c.61-1.47,2-5,2-5l.32.81a1.557,1.557,0,0,0,.39.55,1.392,1.392,0,0,0,.6.41l2.39.89,2.88,1.14.62.23h.1a1.541,1.541,0,0,0,2-.875l0-.015h0l.1-.58a1.51,1.51,0,0,0-.18-.67M512.416,31.97h0a.191.191,0,0,1-.13.08h-1.4a.212.212,0,0,1-.15-.1h.41a.37.37,0,0,0,.32-.41.38.38,0,0,0-.32-.42h-.42a.2.2,0,0,1,.16-.11h1.4a.232.232,0,0,1,.17.11h-.09a.391.391,0,0,0-.33.42.381.381,0,0,0,.33.41m3.37-.08a.43.43,0,0,0-.41.72l.19.11a.158.158,0,0,1-.17,0l-1.26-.62s-.07,0-.09-.15h.22a.379.379,0,0,0,.33-.41.426.426,0,0,0-.17-.36h.18l1.25.62a.3.3,0,0,1,.1.18h0Zm2.82,1.51a.43.43,0,0,0-.04.83h0a.266.266,0,0,1-.2,0l-1.25-.63s-.06,0-.09-.11a.389.389,0,0,0,.47-.21.38.38,0,0,0-.08-.52h.12l1.25.62s.05,0,.07.08Zm3.33.86h.24a.186.186,0,0,1-.13.08h-1.329a.227.227,0,0,1-.14-.08.411.411,0,0,0,.27-.4.381.381,0,0,0-.32-.42h0a.22.22,0,0,1,.159-.12h1.4a.2.2,0,0,1,.159.11h-.26a.38.38,0,0,0-.34.4.4.4,0,0,0,.32.43" style="fill:#1d1d1b"/></g><rect x="498.306" y="25.38" width="10.75" height="10.74" style="fill:#e30613"/><path d="M505.746,28.91c-.56,0-.79-.63-1.59-.63a1.489,1.489,0,0,0-1.43,1.21h2c.29,0,.55,0,.55.37s-.25.4-.55.4h-2.16a1.922,1.922,0,0,0,0,.24v.31h1.75c.28,0,.55,0,.55.38s-.25.4-.55.4h-1.65a1.519,1.519,0,0,0,1.51,1.34c.71,0,1.12-.58,1.64-.58a.6.6,0,0,1,.581.618V33c0,1-1.6,1.19-2.32,1.19a2.829,2.829,0,0,1-3-2.6h-.22c-.28,0-.54,0-.54-.38s.38-.4.68-.4v-.27a2.615,2.615,0,0,1,0-.28h-.17c-.28,0-.53,0-.53-.38s.49-.39.81-.39a3,3,0,0,1,3-2.51c.7,0,2.27.28,2.27,1.2a.7.7,0,0,1-.669.73h0" style="fill:#fff"/></svg>